HIERARCHY
ROOT root
{
	OFFSET	0	13.1	24.9
	CHANNELS 6  Xposition Yposition Zposition Xrotation Yrotation Zrotation
	JOINT spine_1
	{
		OFFSET	0	9.99999	0
		CHANNELS 3  Xrotation Yrotation Zrotation
		JOINT spine_2
		{
			OFFSET	0	112	-10
			CHANNELS 3  Xrotation Yrotation Zrotation
			JOINT spine_3
			{
				OFFSET	0	206.5	19.3
				CHANNELS 3  Xrotation Yrotation Zrotation
				JOINT spine_4
				{
					OFFSET	0	110.4	14.6
					CHANNELS 3  Xrotation Yrotation Zrotation
					JOINT neck_1
					{
						OFFSET	0	71.8	-50.3
						CHANNELS 3  Xrotation Yrotation Zrotation
						JOINT neck_2
						{
							OFFSET	0	86.2	-25.8
							CHANNELS 3  Xrotation Yrotation Zrotation
							JOINT head_ee
							{
								OFFSET	0	179.8	-8.7
								CHANNELS 3  Xrotation Yrotation Zrotation
								End Site
								{
									OFFSET	1	0	0
								}
							}
						}
					}
					JOINT left_clavicle
					{
						OFFSET	-43.2	22.4	-70.8
						CHANNELS 3  Xrotation Yrotation Zrotation
						JOINT left_shoulder
						{
							OFFSET	-93.9	-5.79999	48.7
							CHANNELS 3  Xrotation Yrotation Zrotation
							JOINT left_elbow
							{
								OFFSET	-291.4	-30.8	15.2
								CHANNELS 3  Xrotation Yrotation Zrotation
								JOINT left_lowarm_twist
								{
									OFFSET	-110.7	-3.89999	13.6
									CHANNELS 3  Xrotation Yrotation Zrotation
									JOINT left_hand
									{
										OFFSET	-110.7	-3.89999	13.6
										CHANNELS 3  Xrotation Yrotation Zrotation
										JOINT left_ee
										{
											OFFSET	-80.8	-5.10001	12.1
											CHANNELS 3  Xrotation Yrotation Zrotation
											End Site
											{
												OFFSET	1	0	0
											}
										}
									}
								}
							}
						}
					}
					JOINT right_clavicle
					{
						OFFSET	43.2	22.4	-70.8
						CHANNELS 3  Xrotation Yrotation Zrotation
						JOINT right_shoulder
						{
							OFFSET	93.9	-5.79999	48.7
							CHANNELS 3  Xrotation Yrotation Zrotation
							JOINT right_elbow
							{
								OFFSET	291.4	-30.8	15.2
								CHANNELS 3  Xrotation Yrotation Zrotation
								JOINT right_lowarm_twist
								{
									OFFSET	110.7	-3.89999	13.6
									CHANNELS 3  Xrotation Yrotation Zrotation
									JOINT right_hand
									{
										OFFSET	110.7	-3.89999	13.6
										CHANNELS 3  Xrotation Yrotation Zrotation
										JOINT right_ee
										{
											OFFSET	80.8	-5.10001	12.1
											CHANNELS 3  Xrotation Yrotation Zrotation
											End Site
											{
												OFFSET	1	0	0
											}
										}
									}
								}
							}
						}
					}
				}
			}
		}
	}
	JOINT left_hip
	{
		OFFSET	-82.8	-127.5	0.300001
		CHANNELS 3  Xrotation Yrotation Zrotation
		JOINT left_knee
		{
			OFFSET	-28.2	-396.7	2.2
			CHANNELS 3  Xrotation Yrotation Zrotation
			JOINT left_ankle
			{
				OFFSET	-11.7	-411.3	35.4
				CHANNELS 3  Xrotation Yrotation Zrotation
				JOINT left_toes
				{
					OFFSET	0	-60	-88.6
					CHANNELS 3  Xrotation Yrotation Zrotation
					JOINT left_foot_ee
					{
						OFFSET	-22.5	-16.5	-42.2
						CHANNELS 3  Xrotation Yrotation Zrotation
						End Site
						{
							OFFSET	1	0	0
						}
					}
				}
			}
		}
	}
	JOINT right_hip
	{
		OFFSET	82.8	-127.5	0.300001
		CHANNELS 3  Xrotation Yrotation Zrotation
		JOINT right_knee
		{
			OFFSET	28.2	-396.7	2.2
			CHANNELS 3  Xrotation Yrotation Zrotation
			JOINT right_ankle
			{
				OFFSET	11.7	-411.3	35.4
				CHANNELS 3  Xrotation Yrotation Zrotation
				JOINT right_toes
				{
					OFFSET	0	-60	-88.6
					CHANNELS 3  Xrotation Yrotation Zrotation
					JOINT right_foot_ee
					{
						OFFSET	22.5	-16.5	-42.2
						CHANNELS 3  Xrotation Yrotation Zrotation
						End Site
						{
							OFFSET	1	0	0
						}
					}
				}
			}
		}
	}
}
MOTION
Frames: 12
Frame Time: 0.02
2479.54709198 772.369 -1525.17892644 0.897900671687 70.5016896851 -3.74991612173 2.75417 0.230477 0.298271 2.75419 0.21103 0.312332 2.75535 0.157323 0.342541 2.75524 0.209447 0.313397 -12.7645 20.0872 5.37903 -13.5608 34.9104 11.4281 -0.0 0.0 -0.0 1.87302 19.0381 5.02484 -36.624 -29.6605 63.9888 0.666956 -18.2831 0.107327 -19.9275 -1.1107 2.28039 1.95533 16.8174 19.1897 -0.0 0.0 -0.0 5.40405 5.21883 -10.27 -5.6312 43.6925 -62.1387 1.62814 38.8842 -0.574736 -22.7698 1.33155 -2.56981 2.18946 10.4154 -10.4031 0.0 0.0 0.0 8.67021 9.5982 -3.47595 -39.7547 -0.451233 5.96392 23.3896 -5.68598 -3.21781 -40.146 0.0 0.0 -0.0 0.0 -0.0 18.0404 10.9777 -6.7537 -11.7038 -0.302244 -1.76759 -0.72175 10.0249 -0.111546 -27.4319 0.0 0.0 0.0 0.0 0.0 
2468.27513698 770.803 -1521.06337534 -2.33842698598 70.6116876264 -0.367545235112 2.89419 0.273696 0.435558 2.89427 0.245426 0.45209 2.8962 0.169686 0.485619 2.89595 0.24425 0.452727 -12.5777 19.8378 5.6399 -13.2971 34.2338 11.507 -0.0 0.0 -0.0 1.6747 20.2942 4.81027 -36.7273 -29.5925 63.8006 0.60294 -16.6299 0.0881208 -19.574 -1.08425 2.24365 2.00086 16.4675 19.3794 -0.0 0.0 -0.0 5.64359 5.21478 -10.7579 -4.42618 43.2429 -63.5735 1.6901 39.9337 -0.614078 -23.5847 1.3975 -2.65076 1.92036 9.6624 -8.89273 0.0 0.0 0.0 11.7511 9.75126 -4.94805 -37.7256 -0.32845 5.67724 21.7084 -6.20468 -3.01936 -40.1614 0.0 0.0 -0.0 0.0 -0.0 17.1888 10.839 -7.27456 -9.71066 -0.276402 -1.46287 1.92301 9.35638 0.293975 -26.7868 0.0 0.0 0.0 0.0 0.0 
2452.39009253 769.964 -1525.52239257 -6.31867778091 73.3859800281 3.94838891387 3.30654 0.0742993 0.584253 3.30673 0.0369719 0.587797 3.30704 -0.0536516 0.586509 3.30656 0.0396483 0.587622 -9.83731 20.7361 8.11966 -10.0501 33.6918 13.1538 -0.0 0.0 -0.0 -0.538236 22.0095 1.79609 -37.1428 -29.6052 63.6864 0.907419 -24.204 0.194571 -20.5682 -1.15922 2.34657 1.98671 17.7569 19.6818 -0.0 0.0 -0.0 5.14434 4.86906 -9.75793 -3.33427 41.5411 -66.052 2.06633 45.6627 -0.870015 -22.4868 1.30891 -2.54148 1.75286 11.5295 -6.93434 0.0 0.0 0.0 13.3401 10.1814 -7.31717 -27.6213 0.127801 4.19601 25.0197 4.0607 -3.33639 -39.8189 0.0 0.0 -0.0 0.0 -0.0 15.9321 10.8875 -7.63042 -7.81076 -0.241916 -1.17338 5.53032 11.3016 0.845704 -21.5079 0.0 0.0 0.0 0.0 0.0 
2441.76962852 769.14 -1515.70652999 -6.5754260617 73.9251960034 4.19334240138 3.35335 0.1636 0.579427 3.35353 0.126399 0.588662 3.35476 0.0350891 0.601056 3.35428 0.129573 0.587972 -9.79499 20.8783 7.79334 -10.0314 34.1706 12.8759 -0.0 0.0 -0.0 -1.21125 23.0608 0.999396 -36.916 -29.6817 63.9951 0.957451 -25.3742 0.215549 -21.1799 -1.20623 2.40925 2.04664 19.0379 20.4513 -0.0 0.0 -0.0 4.74883 5.06299 -8.94751 -3.03449 41.1204 -67.1955 2.20254 47.4876 -0.968952 -22.1605 1.28299 -2.50869 1.66784 11.1085 -6.54206 0.0 0.0 0.0 13.6659 10.7321 -8.38635 -23.9476 0.227925 3.64121 19.3348 4.9304 -2.64994 -39.8894 0.0 0.0 -0.0 0.0 -0.0 15.0031 10.8929 -7.42688 -6.71087 -0.217568 -1.00635 6.60676 12.8022 1.01636 -20.1822 0.0 0.0 0.0 0.0 0.0 
2377.5672027 762.93 -1529.0904084 -11.3540403912 75.5839194507 9.61045406322 3.93543 -0.205058 -0.0261846 3.93541 -0.202976 -0.0391799 3.93556 -0.195316 -0.0677195 3.93561 -0.20356 -0.036023 -8.02304 21.8097 9.00142 -7.97053 34.5885 13.6889 -0.0 0.0 -0.0 -1.2966 21.4882 0.649324 -29.5665 -31.1401 63.1998 1.21196 -30.9782 0.33587 -23.6438 -1.40232 2.65659 1.88219 22.3634 20.3454 -0.0 0.0 -0.0 2.41381 2.25975 -4.4729 -13.1466 38.2532 -66.7243 2.35858 49.4328 -1.08576 -21.3906 1.22258 -2.43073 1.71905 13.701 -5.74465 0.0 0.0 0.0 13.0423 14.9744 -6.56613 -13.425 0.316018 2.03131 19.9243 18.7817 -2.77838 -38.6332 0.0 0.0 -0.0 0.0 -0.0 12.6833 11.0944 -5.59018 -9.67538 -0.27585 -1.45748 19.0849 9.09967 2.72582 -10.8574 0.0 0.0 0.0 0.0 0.0 
2377.2660688 762.93 -1526.73482885 -11.603565573 75.8962168404 9.86791099783 3.93543 -0.205058 -0.0261846 3.93541 -0.202976 -0.0391799 3.93556 -0.195316 -0.0677195 3.93561 -0.20356 -0.036023 -8.02304 21.8097 9.00142 -7.97053 34.5885 13.6889 -0.0 0.0 -0.0 -1.2966 21.4882 0.649324 -29.5665 -31.1401 63.1998 1.21196 -30.9782 0.33587 -23.6438 -1.40232 2.65659 1.88219 22.3634 20.3454 -0.0 0.0 -0.0 2.41381 2.25975 -4.4729 -13.1466 38.2532 -66.7243 2.35858 49.4328 -1.08576 -21.3906 1.22258 -2.43073 1.71905 13.701 -5.74465 0.0 0.0 0.0 13.0423 14.9744 -6.56613 -13.425 0.316018 2.03131 19.9243 18.7817 -2.77838 -38.6332 0.0 0.0 -0.0 0.0 -0.0 12.6833 11.0944 -5.59018 -9.67538 -0.27585 -1.45748 19.0849 9.09967 2.72582 -10.8574 0.0 0.0 0.0 0.0 0.0 
2377.08110697 762.93 -1525.23369472 -11.7683930834 76.094972328 10.0377874709 3.93543 -0.205058 -0.0261846 3.93541 -0.202976 -0.0391799 3.93556 -0.195316 -0.0677195 3.93561 -0.20356 -0.036023 -8.02304 21.8097 9.00142 -7.97053 34.5885 13.6889 -0.0 0.0 -0.0 -1.2966 21.4882 0.649324 -29.5665 -31.1401 63.1998 1.21196 -30.9782 0.33587 -23.6438 -1.40232 2.65659 1.88219 22.3634 20.3454 -0.0 0.0 -0.0 2.41381 2.25975 -4.4729 -13.1466 38.2532 -66.7243 2.35858 49.4328 -1.08576 -21.3906 1.22258 -2.43073 1.71905 13.701 -5.74465 0.0 0.0 0.0 13.0423 14.9744 -6.56613 -13.425 0.316018 2.03131 19.9243 18.7817 -2.77838 -38.6332 0.0 0.0 -0.0 0.0 -0.0 12.6833 11.0944 -5.59018 -9.67538 -0.27585 -1.45748 19.0849 9.09967 2.72582 -10.8574 0.0 0.0 0.0 0.0 0.0 
2376.80304364 762.93 -1522.8893987 -12.0353891049 76.4049520397 10.3126598017 3.93543 -0.205058 -0.0261846 3.93541 -0.202976 -0.0391799 3.93556 -0.195316 -0.0677195 3.93561 -0.20356 -0.036023 -8.02304 21.8097 9.00142 -7.97053 34.5885 13.6889 -0.0 0.0 -0.0 -1.2966 21.4882 0.649324 -29.5665 -31.1401 63.1998 1.21196 -30.9782 0.33587 -23.6438 -1.40232 2.65659 1.88219 22.3634 20.3454 -0.0 0.0 -0.0 2.41381 2.25975 -4.4729 -13.1466 38.2532 -66.7243 2.35858 49.4328 -1.08576 -21.3906 1.22258 -2.43073 1.71905 13.701 -5.74465 0.0 0.0 0.0 13.0423 14.9744 -6.56613 -13.425 0.316018 2.03131 19.9243 18.7817 -2.77838 -38.6332 0.0 0.0 -0.0 0.0 -0.0 12.6833 11.0944 -5.59018 -9.67538 -0.27585 -1.45748 19.0849 9.09967 2.72582 -10.8574 0.0 0.0 0.0 0.0 0.0 
2374.16022795 757.678 -1529.18105223 -10.8736827588 75.0939705808 8.53461041142 4.04709 -0.224433 -0.070236 4.04706 -0.219509 -0.084375 4.0474 -0.205461 -0.114409 4.04745 -0.220951 -0.0805244 -8.87697 21.8324 9.21205 -8.92921 34.7546 14.1643 -0.0 0.0 -0.0 -1.03938 20.6306 0.895572 -28.4191 -31.1888 63.5099 1.21782 -31.1001 0.338888 -23.8203 -1.41678 2.67399 1.93173 22.7538 20.763 -0.0 0.0 -0.0 2.29396 1.54409 -4.29568 -12.9674 36.4859 -67.0332 2.21778 47.6842 -0.980204 -21.5439 1.23453 -2.44632 1.7568 13.4973 -6.09038 0.0 0.0 0.0 12.3642 15.3841 -5.40636 -13.8494 0.318196 2.09639 22.7745 13.7157 -3.0906 -37.7956 0.0 0.0 -0.0 0.0 -0.0 12.3917 11.8223 -3.67591 -11.7144 -0.302352 -1.76921 22.2517 9.05756 3.12613 -10.2736 0.0 0.0 0.0 0.0 0.0 
2370.21950679 757.384 -1543.4754686 -9.2750240716 73.3811973209 6.64354477615 4.15903 -0.222873 -0.0951518 4.15901 -0.216366 -0.109141 4.15943 -0.199136 -0.138097 4.15948 -0.218447 -0.104914 -11.2239 21.4327 9.60818 -11.5631 34.4356 15.1952 -0.0 0.0 -0.0 -0.462757 19.1846 1.55118 -28.5426 -32.7312 62.5158 1.22234 -31.1942 0.341229 -23.5063 -1.39111 2.64301 1.88543 22.4822 20.3985 -0.0 0.0 -0.0 2.22715 1.25718 -4.18868 -14.7611 36.6604 -66.4469 2.16472 46.9932 -0.941188 -21.3709 1.22105 -2.42872 1.74132 13.5541 -5.96045 0.0 0.0 0.0 11.6692 15.6985 -4.69359 -13.2617 0.315051 2.00627 22.8115 14.3287 -3.09922 -38.7241 0.0 0.0 -0.0 0.0 -0.0 12.4868 12.2231 -2.67452 -13.827 -0.318093 -2.09295 24.2027 9.49555 3.37149 -9.90911 0.0 0.0 0.0 0.0 0.0 
2370.14455001 757.384 -1543.01070979 -9.30853072197 73.4422044779 6.67850649713 4.15903 -0.222873 -0.0951518 4.15901 -0.216366 -0.109141 4.15943 -0.199136 -0.138097 4.15948 -0.218447 -0.104914 -11.2239 21.4327 9.60818 -11.5631 34.4356 15.1952 -0.0 0.0 -0.0 -0.462757 19.1846 1.55118 -28.5426 -32.7312 62.5158 1.22234 -31.1942 0.341229 -23.5063 -1.39111 2.64301 1.88543 22.4822 20.3985 -0.0 0.0 -0.0 2.22715 1.25718 -4.18868 -14.7611 36.6604 -66.4469 2.16472 46.9932 -0.941188 -21.3709 1.22105 -2.42872 1.74132 13.5541 -5.96045 0.0 0.0 0.0 11.6692 15.6985 -4.69359 -13.2617 0.315051 2.00627 22.8115 14.3287 -3.09922 -38.7241 0.0 0.0 -0.0 0.0 -0.0 12.4868 12.2231 -2.67452 -13.827 -0.318093 -2.09295 24.2027 9.49555 3.37149 -9.90911 0.0 0.0 0.0 0.0 0.0 
2370.93160932 755.561 -1551.80607316 -8.00169880286 71.5752254042 4.93710633116 4.10938 -0.14509 -0.161104 4.10939 -0.134544 -0.17001 4.10978 -0.1095 -0.187124 4.10976 -0.137678 -0.167482 -10.7522 21.2114 9.4723 -11.018 33.9619 14.8433 -0.0 0.0 -0.0 0.0677072 17.1584 2.1162 -27.8462 -33.287 62.6653 1.20237 -30.7777 0.330949 -22.9662 -1.34733 2.5894 2.18273 23.2138 22.4666 -0.0 0.0 -0.0 2.55924 0.866854 -4.86572 -14.9382 35.5531 -66.3098 1.87018 42.8087 -0.733135 -21.2412 1.21098 -2.41551 1.83696 14.3936 -6.23136 0.0 0.0 0.0 10.8495 16.0691 -3.93327 -12.9984 0.313342 1.96591 24.8651 13.2039 -3.33665 -38.7206 0.0 0.0 -0.0 0.0 -0.0 13.4912 12.1328 -2.10918 -16.3558 -0.321229 -2.4809 26.1129 8.30165 3.57743 -10.4078 0.0 0.0 0.0 0.0 0.0 
